# xmcd
#
# Track frame offsets:
#	150
#	13017
#	31471
#	46709
#	58105
#	77525
#	91337
#	105849
#	120300
#	133132
#	146757
#	157643
#	171039
#	189662
#
# Disc length: 2746 seconds
#
# Revision: 1
# Processed by: cddbd v1.5.1PL2 Copyright (c) Steve Scherf et al.
# Submitted via: audiograbber 1.83.01
#
DISCID=a50ab80e
DTITLE=Mandy Strobel - The Way i feel
DYEAR=2006
DGENRE=Country
TTITLE0=Comin' around
TTITLE1=Just the Wife i love
TTITLE2=When will the Peace in the Valley ever come
TTITLE3=The Bow and the Arrow
TTITLE4=Soldier's whishes
TTITLE5=I'm meant for Tennessee
TTITLE6=Another Man in black
TTITLE7=Goin' by the Book
TTITLE8=Get on your Knees and pray
TTITLE9=Halo round the Moon
TTITLE10=I don't wanna have to run
TTITLE11=May the Lord always bless you
TTITLE12=The old watch
TTITLE13=Farside Banks of Jordan and Elsy Strobel
EXTD=
EXTT0=
EXTT1=
EXTT2=
EXTT3=
EXTT4=
EXTT5=
EXTT6=
EXTT7=
EXTT8=
EXTT9=
EXTT10=
EXTT11=
EXTT12=
EXTT13=
PLAYORDER=
